<svg width="558" height="306" viewBox="0 0 558 306" fill="none" xmlns="http://www.w3.org/2000/svg">
<path d="M1.44 209.451H11.616L16.32 261.099H16.512L21.504 209.451H33.024L38.016 261.099H38.208L42.912 209.451H52.032L45.216 276.651H32.064L27.264 231.339H27.072L22.272 276.651H8.256L1.44 209.451ZM72.6375 277.611C67.4535 277.611 63.4855 276.139 60.7335 273.195C57.9815 270.251 56.6055 266.091 56.6055 260.715V225.387C56.6055 220.011 57.9815 215.851 60.7335 212.907C63.4855 209.963 67.4535 208.491 72.6375 208.491C77.8215 208.491 81.7895 209.963 84.5415 212.907C87.2935 215.851 88.6695 220.011 88.6695 225.387V260.715C88.6695 266.091 87.2935 270.251 84.5415 273.195C81.7895 276.139 77.8215 277.611 72.6375 277.611ZM72.6375 268.011C76.2855 268.011 78.1095 265.803 78.1095 261.387V224.715C78.1095 220.299 76.2855 218.091 72.6375 218.091C68.9895 218.091 67.1655 220.299 67.1655 224.715V261.387C67.1655 265.803 68.9895 268.011 72.6375 268.011ZM95.811 209.451H111.459C116.899 209.451 120.867 210.731 123.363 213.291C125.859 215.787 127.107 219.659 127.107 224.907V229.035C127.107 236.011 124.803 240.427 120.195 242.283V242.475C122.755 243.243 124.547 244.811 125.571 247.179C126.659 249.547 127.203 252.715 127.203 256.683V268.491C127.203 270.411 127.267 271.979 127.395 273.195C127.523 274.347 127.843 275.499 128.355 276.651H117.603C117.219 275.563 116.963 274.539 116.835 273.579C116.707 272.619 116.643 270.891 116.643 268.395V256.107C116.643 253.035 116.131 250.891 115.107 249.675C114.147 248.459 112.451 247.851 110.019 247.851H106.371V276.651H95.811V209.451ZM110.211 238.251C112.323 238.251 113.891 237.707 114.915 236.619C116.003 235.531 116.547 233.707 116.547 231.147V225.963C116.547 223.531 116.099 221.771 115.203 220.683C114.371 219.595 113.027 219.051 111.171 219.051H106.371V238.251H110.211ZM134.53 209.451H145.09V237.771L158.53 209.451H169.09L156.514 234.123L169.282 276.651H158.242L149.314 246.699L145.09 255.243V276.651H134.53V209.451ZM189.655 209.451H200.215V276.651H189.655V209.451ZM208.124 209.451H221.372L231.644 249.675H231.836V209.451H241.244V276.651H230.396L217.724 227.595H217.532V276.651H208.124V209.451ZM264.467 209.451H280.019C285.267 209.451 289.203 210.859 291.827 213.675C294.451 216.491 295.763 220.619 295.763 226.059V232.683C295.763 238.123 294.451 242.251 291.827 245.067C289.203 247.883 285.267 249.291 280.019 249.291H275.027V276.651H264.467V209.451ZM280.019 239.691C281.747 239.691 283.027 239.211 283.859 238.251C284.755 237.291 285.203 235.659 285.203 233.355V225.387C285.203 223.083 284.755 221.451 283.859 220.491C283.027 219.531 281.747 219.051 280.019 219.051H275.027V239.691H280.019ZM301.499 209.451H317.147C322.587 209.451 326.555 210.731 329.051 213.291C331.547 215.787 332.795 219.659 332.795 224.907V229.035C332.795 236.011 330.491 240.427 325.883 242.283V242.475C328.443 243.243 330.235 244.811 331.259 247.179C332.347 249.547 332.891 252.715 332.891 256.683V268.491C332.891 270.411 332.955 271.979 333.083 273.195C333.211 274.347 333.531 275.499 334.043 276.651H323.291C322.907 275.563 322.651 274.539 322.523 273.579C322.395 272.619 322.331 270.891 322.331 268.395V256.107C322.331 253.035 321.819 250.891 320.795 249.675C319.835 248.459 318.139 247.851 315.707 247.851H312.059V276.651H301.499V209.451ZM315.899 238.251C318.011 238.251 319.579 237.707 320.603 236.619C321.691 235.531 322.234 233.707 322.234 231.147V225.963C322.234 223.531 321.787 221.771 320.891 220.683C320.059 219.595 318.715 219.051 316.859 219.051H312.059V238.251H315.899ZM355.481 277.611C350.297 277.611 346.329 276.139 343.577 273.195C340.825 270.251 339.449 266.091 339.449 260.715V225.387C339.449 220.011 340.825 215.851 343.577 212.907C346.329 209.963 350.297 208.491 355.481 208.491C360.665 208.491 364.633 209.963 367.385 212.907C370.137 215.851 371.513 220.011 371.513 225.387V260.715C371.513 266.091 370.137 270.251 367.385 273.195C364.633 276.139 360.665 277.611 355.481 277.611ZM355.481 268.011C359.129 268.011 360.953 265.803 360.953 261.387V224.715C360.953 220.299 359.129 218.091 355.481 218.091C351.833 218.091 350.009 220.299 350.009 224.715V261.387C350.009 265.803 351.833 268.011 355.481 268.011ZM393.631 277.611C388.511 277.611 384.607 276.171 381.919 273.291C379.231 270.347 377.887 266.155 377.887 260.715V225.387C377.887 219.947 379.231 215.787 381.919 212.907C384.607 209.963 388.511 208.491 393.631 208.491C398.751 208.491 402.655 209.963 405.343 212.907C408.031 215.787 409.375 219.947 409.375 225.387V231.147H399.391V224.715C399.391 220.299 397.567 218.091 393.919 218.091C390.271 218.091 388.447 220.299 388.447 224.715V261.483C388.447 265.835 390.271 268.011 393.919 268.011C397.567 268.011 399.391 265.835 399.391 261.483V248.331H394.111V238.731H409.375V260.715C409.375 266.155 408.031 270.347 405.343 273.291C402.655 276.171 398.751 277.611 393.631 277.611ZM416.155 209.451H431.803C437.243 209.451 441.211 210.731 443.707 213.291C446.203 215.787 447.451 219.659 447.451 224.907V229.035C447.451 236.011 445.147 240.427 440.539 242.283V242.475C443.099 243.243 444.891 244.811 445.915 247.179C447.003 249.547 447.547 252.715 447.547 256.683V268.491C447.547 270.411 447.611 271.979 447.739 273.195C447.867 274.347 448.187 275.499 448.699 276.651H437.947C437.563 275.563 437.307 274.539 437.179 273.579C437.051 272.619 436.987 270.891 436.987 268.395V256.107C436.987 253.035 436.475 250.891 435.451 249.675C434.491 248.459 432.795 247.851 430.363 247.851H426.715V276.651H416.155V209.451ZM430.555 238.251C432.667 238.251 434.235 237.707 435.259 236.619C436.347 235.531 436.891 233.707 436.891 231.147V225.963C436.891 223.531 436.443 221.771 435.547 220.683C434.715 219.595 433.371 219.051 431.515 219.051H426.715V238.251H430.555ZM454.874 209.451H483.674V219.051H465.434V236.811H479.93V246.411H465.434V267.051H483.674V276.651H454.874V209.451ZM503.664 277.611C498.544 277.611 494.672 276.171 492.048 273.291C489.424 270.347 488.112 266.155 488.112 260.715V256.875H498.096V261.483C498.096 265.835 499.92 268.011 503.568 268.011C505.36 268.011 506.704 267.499 507.6 266.475C508.56 265.387 509.04 263.659 509.04 261.291C509.04 258.475 508.4 256.011 507.12 253.899C505.84 251.723 503.472 249.131 500.016 246.123C495.664 242.283 492.624 238.827 490.896 235.755C489.168 232.619 488.304 229.099 488.304 225.195C488.304 219.883 489.648 215.787 492.336 212.907C495.024 209.963 498.928 208.491 504.048 208.491C509.104 208.491 512.912 209.963 515.472 212.907C518.096 215.787 519.408 219.947 519.408 225.387V228.171H509.424V224.715C509.424 222.411 508.976 220.747 508.08 219.723C507.184 218.635 505.872 218.091 504.144 218.091C500.624 218.091 498.864 220.235 498.864 224.523C498.864 226.955 499.504 229.227 500.784 231.339C502.128 233.451 504.528 236.011 507.984 239.019C512.4 242.859 515.44 246.347 517.104 249.483C518.768 252.619 519.6 256.299 519.6 260.523C519.6 266.027 518.224 270.251 515.472 273.195C512.784 276.139 508.848 277.611 503.664 277.611ZM539.383 277.611C534.263 277.611 530.391 276.171 527.767 273.291C525.143 270.347 523.831 266.155 523.831 260.715V256.875H533.815V261.483C533.815 265.835 535.639 268.011 539.287 268.011C541.079 268.011 542.423 267.499 543.319 266.475C544.279 265.387 544.759 263.659 544.759 261.291C544.759 258.475 544.119 256.011 542.839 253.899C541.559 251.723 539.191 249.131 535.735 246.123C531.383 242.283 528.343 238.827 526.615 235.755C524.887 232.619 524.023 229.099 524.023 225.195C524.023 219.883 525.367 215.787 528.055 212.907C530.743 209.963 534.647 208.491 539.767 208.491C544.823 208.491 548.631 209.963 551.191 212.907C553.815 215.787 555.127 219.947 555.127 225.387V228.171H545.143V224.715C545.143 222.411 544.695 220.747 543.799 219.723C542.903 218.635 541.591 218.091 539.863 218.091C536.343 218.091 534.583 220.235 534.583 224.523C534.583 226.955 535.223 229.227 536.503 231.339C537.847 233.451 540.247 236.011 543.703 239.019C548.119 242.859 551.159 246.347 552.823 249.483C554.487 252.619 555.319 256.299 555.319 260.523C555.319 266.027 553.943 270.251 551.191 273.195C548.503 276.139 544.567 277.611 539.383 277.611Z" fill="#8F56FF"/>
<path d="M366.072 113.934L482.502 62.4471L468.876 189.022L366.072 113.934Z" stroke="#6E4555" stroke-width="6"/>
<path d="M421.801 134.592C419.045 132.579 417.509 130.269 417.195 127.661C416.905 125.019 417.83 122.234 419.969 119.305L440.127 91.707L445.812 95.8593L425.352 123.871C424.446 125.112 424.033 126.184 424.113 127.087C424.227 128.016 424.749 128.82 425.679 129.499C426.61 130.179 427.517 130.419 428.402 130.22C429.322 130.046 430.235 129.339 431.141 128.099L451.6 100.087L457.078 104.088L436.921 131.687C434.782 134.616 432.41 136.344 429.805 136.872C427.226 137.365 424.558 136.605 421.801 134.592ZM461.127 107.046L466.813 111.198L440.389 147.376L434.704 143.223L461.127 107.046Z" fill="#FFB800"/>
<rect width="94" height="25" transform="translate(167 129.651)" fill="#00E2D9"/>
<rect x="167" y="129.651" width="94" height="25" fill="#00E2D9"/>
<rect width="94" height="25" transform="translate(277 129.651)" fill="#00E2D9"/>
<rect x="277" y="129.651" width="94" height="25" fill="#00E2D9"/>
<rect width="94" height="25" transform="translate(117 164.651)" fill="#00E2D9"/>
<rect x="117" y="164.651" width="94" height="25" fill="#00E2D9"/>
<rect width="94" height="25" transform="translate(222 164.651)" fill="#00E2D9"/>
<rect x="222" y="164.651" width="94" height="25" fill="#00E2D9"/>
<rect width="94" height="25" transform="translate(327 164.651)" fill="#00E2D9"/>
<rect x="327" y="164.651" width="94" height="25" fill="#00E2D9"/>
<rect width="94" height="25" transform="translate(222 94.6508)" fill="#00E2D9"/>
<rect x="222" y="94.6508" width="94" height="25" fill="#00E2D9"/>
<path fill-rule="evenodd" clip-rule="evenodd" d="M268.44 40.5035L243.845 69.7095C238.369 76.2132 242.992 86.1509 251.494 86.1509H288.771C295.97 86.1509 300.811 78.7719 297.943 72.168L292.862 60.466L300.543 49.354L295.981 39.3045L288.478 50.3696L285.262 42.962C282.305 36.1528 273.222 34.8253 268.44 40.5035Z" fill="#6E4555"/>
<g filter="url(#filter0_d)">
<path d="M295.692 34.8408C294.048 31.3421 295.55 27.1725 299.049 25.5277L339.882 6.33055C347.319 2.83429 356.182 6.02865 359.678 13.4654C363.174 20.9021 359.98 29.765 352.543 33.2613L311.71 52.4584C308.211 54.1032 304.042 52.6004 302.397 49.1018L295.692 34.8408Z" fill="#FE938C"/>
</g>
<defs>
<filter id="filter0_d" x="291.026" y="4.91315" width="74.07" height="56.2121" filterUnits="userSpaceOnUse" color-interpolation-filters="sRGB">
<feFlood flood-opacity="0" result="BackgroundImageFix"/>
<feColorMatrix in="SourceAlpha" type="matrix" values="0 0 0 0 0 0 0 0 0 0 0 0 0 0 0 0 0 0 127 0" result="hardAlpha"/>
<feOffset dy="4"/>
<feGaussianBlur stdDeviation="2"/>
<feComposite in2="hardAlpha" operator="out"/>
<feColorMatrix type="matrix" values="0 0 0 0 0 0 0 0 0 0 0 0 0 0 0 0 0 0 0.25 0"/>
<feBlend mode="normal" in2="BackgroundImageFix" result="effect1_dropShadow"/>
<feBlend mode="normal" in="SourceGraphic" in2="effect1_dropShadow" result="shape"/>
</filter>
</defs>
</svg>
