<svg width="748" height="426" viewBox="0 0 748 426" fill="none" xmlns="http://www.w3.org/2000/svg">
<path fill-rule="evenodd" clip-rule="evenodd" d="M178.777 203.651H105V228.651H181.313L178.777 203.651ZM182.327 238.651H160V263.651H184.863L182.327 238.651ZM219.127 298.651L216.85 273.651H223.644L221.227 298.651H219.127ZM185.877 273.651L188.413 298.651H105V273.651H185.877ZM244.835 298.651L247.483 273.651H261.147L263.795 298.651H244.835ZM290.113 298.651H288.013L285.596 273.651H292.39L290.113 298.651ZM227.027 238.651H213.662L215.939 263.651H224.61L227.027 238.651ZM248.543 263.651H254V238.651H251.191L248.543 263.651ZM144 238.651H50V263.651H144V238.651ZM0 273.651H94V298.651H0V273.651Z" fill="#828282"/>
<path d="M176.32 97.4H206.848L220.96 252.344H221.536L236.512 97.4H271.072L286.048 252.344H286.624L300.736 97.4H328.096L307.648 299H268.192L253.792 163.064H253.216L238.816 299H196.768L176.32 97.4ZM344.121 97.4H375.801V299H344.121V97.4ZM399.527 97.4H446.183C461.927 97.4 473.735 101.624 481.607 110.072C489.479 118.52 493.415 130.904 493.415 147.224V167.096C493.415 183.416 489.479 195.8 481.607 204.248C473.735 212.696 461.927 216.92 446.183 216.92H431.207V299H399.527V97.4ZM446.183 188.12C451.367 188.12 455.207 186.68 457.703 183.8C460.391 180.92 461.735 176.024 461.735 169.112V145.208C461.735 138.296 460.391 133.4 457.703 130.52C455.207 127.64 451.367 126.2 446.183 126.2H431.207V188.12H446.183ZM634.326 301.88C618.966 301.88 607.254 297.56 599.19 288.92C591.126 280.088 587.094 267.512 587.094 251.192V97.4H618.773V253.496C618.773 260.408 620.118 265.4 622.806 268.472C625.686 271.544 629.718 273.08 634.902 273.08C640.086 273.08 644.022 271.544 646.71 268.472C649.59 265.4 651.03 260.408 651.03 253.496V97.4H681.558V251.192C681.558 267.512 677.526 280.088 669.462 288.92C661.398 297.56 649.686 301.88 634.326 301.88ZM704.121 97.4H735.801V299H704.121V97.4Z" fill="#F2994A"/>
<path d="M506.013 183.8H569.373V212.6H506.013V183.8Z" fill="#828282"/>
</svg>
