<svg width="880" height="426" viewBox="0 0 880 426" fill="none" xmlns="http://www.w3.org/2000/svg">
<path d="M308.32 97.4H338.848L352.96 252.344H353.536L368.512 97.4H403.072L418.048 252.344H418.624L432.736 97.4H460.096L439.648 299H400.192L385.792 163.064H385.216L370.816 299H328.768L308.32 97.4ZM476.121 97.4H507.801V299H476.121V97.4ZM531.527 97.4H578.183C593.927 97.4 605.735 101.624 613.607 110.072C621.479 118.52 625.415 130.904 625.415 147.224V167.096C625.415 183.416 621.479 195.8 613.607 204.248C605.735 212.696 593.927 216.92 578.183 216.92H563.207V299H531.527V97.4ZM578.183 188.12C583.367 188.12 587.207 186.68 589.703 183.8C592.391 180.92 593.735 176.024 593.735 169.112V145.208C593.735 138.296 592.391 133.4 589.703 130.52C587.207 127.64 583.367 126.2 578.183 126.2H563.207V188.12H578.183ZM638.013 183.8H701.373V212.6H638.013V183.8ZM766.326 301.88C750.966 301.88 739.254 297.56 731.19 288.92C723.126 280.088 719.094 267.512 719.094 251.192V97.4H750.773V253.496C750.773 260.408 752.118 265.4 754.806 268.472C757.686 271.544 761.718 273.08 766.902 273.08C772.086 273.08 776.022 271.544 778.71 268.472C781.59 265.4 783.03 260.408 783.03 253.496V97.4H813.558V251.192C813.558 267.512 809.526 280.088 801.462 288.92C793.398 297.56 781.686 301.88 766.326 301.88ZM836.121 97.4H867.801V299H836.121V97.4Z" fill="#8F56FF"/>
<rect width="94" height="25" transform="translate(50 238.651)" fill="#00E2D9"/>
<rect x="50" y="238.651" width="94" height="25" fill="#FE938C"/>
<rect width="94" height="25" transform="translate(160 238.651)" fill="#00E2D9"/>
<rect x="160" y="238.651" width="94" height="25" fill="#FE938C"/>
<rect width="94" height="25" transform="translate(0 273.651)" fill="#00E2D9"/>
<rect y="273.651" width="94" height="25" fill="#FE938C"/>
<rect width="94" height="25" transform="translate(105 273.651)" fill="#00E2D9"/>
<rect x="105" y="273.651" width="94" height="25" fill="#FE938C"/>
<rect width="94" height="25" transform="translate(210 273.651)" fill="#00E2D9"/>
<rect x="210" y="273.651" width="94" height="25" fill="#FE938C"/>
<rect width="94" height="25" transform="translate(105 203.651)" fill="#00E2D9"/>
<rect x="105" y="203.651" width="94" height="25" fill="#FE938C"/>
<path fill-rule="evenodd" clip-rule="evenodd" d="M151.44 149.504L126.845 178.71C121.369 185.213 125.992 195.151 134.494 195.151H171.771C178.97 195.151 183.811 187.772 180.943 181.168L175.862 169.466L183.543 158.354L178.981 148.305L171.478 159.37L168.262 151.962C165.305 145.153 156.222 143.825 151.44 149.504Z" fill="#6E4555"/>
<g filter="url(#filter0_d)">
<path d="M178.692 143.841C177.048 140.342 178.55 136.173 182.049 134.528L222.882 115.331C230.319 111.834 239.182 115.029 242.678 122.465V122.465C246.174 129.902 242.98 138.765 235.543 142.261L194.71 161.458C191.211 163.103 187.042 161.6 185.397 158.102L178.692 143.841Z" fill="#8F56FF"/>
</g>
<defs>
<filter id="filter0_d" x="171.714" y="109" width="81.2945" height="63.4366" filterUnits="userSpaceOnUse" color-interpolation-filters="sRGB">
<feFlood flood-opacity="0" result="BackgroundImageFix"/>
<feColorMatrix in="SourceAlpha" type="matrix" values="0 0 0 0 0 0 0 0 0 0 0 0 0 0 0 0 0 0 127 0" result="hardAlpha"/>
<feOffset dy="4"/>
<feGaussianBlur stdDeviation="2"/>
<feComposite in2="hardAlpha" operator="out"/>
<feColorMatrix type="matrix" values="0 0 0 0 0 0 0 0 0 0 0 0 0 0 0 0 0 0 0.25 0"/>
<feBlend mode="normal" in2="BackgroundImageFix" result="effect1_dropShadow"/>
<feBlend mode="normal" in="SourceGraphic" in2="effect1_dropShadow" result="shape"/>
</filter>
</defs>
</svg>
